<?xml version="1.0" encoding="utf-8"?><svg viewBox="0 0 213 32" xmlns="http://www.w3.org/2000/svg" xmlns:xlink="http://www.w3.org/1999/xlink"><style>:root>svg{display:none}:root>svg:target{display:block}</style><svg viewBox="0 0 213 32" id="logo" xmlns="http://www.w3.org/2000/svg"><path d="M18.024 27.659h-.488c0-.006-.002-.01-.003-.016l-.013-.06a3.965 3.965 0 00-.04-.17 8.343 8.343 0 00-.04-.153l-.004-.015a7.045 7.045 0 00-.047-.164l-.017-.053-.034-.112-.02-.06a6.476 6.476 0 00-.037-.108l-.02-.057a5.865 5.865 0 00-.049-.133l-.01-.028a6.746 6.746 0 00-.086-.21l-.043-.102-.028-.063a5.213 5.213 0 00-.072-.157c-.018-.038-.034-.075-.054-.111l-.02-.043a5.385 5.385 0 00-.075-.143l-.034-.061-.049-.088-.037-.065a11.461 11.461 0 00-.086-.146c-.018-.03-.034-.059-.054-.088l-.05-.079-.07-.109a6.114 6.114 0 00-.045-.067l-.049-.072-.049-.07a.827.827 0 00-.047-.065c-.016-.02-.034-.048-.052-.071l-.048-.065-.1-.13-.046-.06-.06-.073-.046-.055-.063-.074-.044-.052-.067-.075-.039-.043a8.133 8.133 0 00-.251-.265l-.038-.037-.078-.077-.039-.037a6.65 6.65 0 00-.082-.078l-.029-.026a7.08 7.08 0 00-.297-.26l-.028-.022a6.313 6.313 0 00-.094-.077l-.031-.025-.099-.077-.017-.013a8.89 8.89 0 00-.341-.249l-.017-.011a7.822 7.822 0 00-.11-.074l-.024-.016a7.578 7.578 0 00-.113-.073l-.007-.004a8.048 8.048 0 00-.384-.23l-.005-.003a10.84 10.84 0 00-.125-.067l-.018-.01a8.305 8.305 0 00-.678-.324l-.014-.006a8.407 8.407 0 00-.185-.076h1.223c.2 0 .361-.217.361-.486 0-.268-.162-.486-.36-.486h-.365a9.24 9.24 0 00.074-.185c.345-.204.951-.637 1.553-1.434l.005-.006c.045-.06.09-.121.134-.185l.009-.013a6.53 6.53 0 00.13-.194l.012-.018.061-.097s0-.003.003-.004l.063-.103.013-.022.053-.091.01-.017.06-.107.014-.025a5.893 5.893 0 00.12-.227l.014-.027.045-.092.016-.033.055-.116.011-.025.045-.097.017-.04a6.703 6.703 0 00.105-.25l.017-.044.042-.107.01-.027.048-.13.016-.046.036-.104c.005-.013.01-.026.013-.04a11.457 11.457 0 00.06-.183l.034-.106.014-.047a7.18 7.18 0 00.054-.19l.03-.112.014-.051.037-.151.01-.043.029-.122.012-.055.034-.16a8.49 8.49 0 00.034-.173l.012-.057.026-.145.005-.03a16.346 16.346 0 00.058-.374l.006-.044.023-.18.007-.058.017-.146.006-.052.018-.19c0-.018.003-.035.004-.054.005-.05.01-.102.013-.154 0-.02.003-.038.005-.057l.013-.2c0-.015 0-.033.002-.046a12.941 12.941 0 00.012-.23l.007-.21v-.03l.004-.191v-.58c0-.065-.003-.133-.004-.2v-.037l-.009-.235-.003-.062a15.724 15.724 0 00-.01-.2c0-.017 0-.033-.003-.051l-.015-.245-.004-.057c-.006-.069-.01-.138-.017-.208 0-.02-.003-.04-.004-.06a22.37 22.37 0 00-.023-.255c0-.016-.004-.032-.005-.049a29.196 29.196 0 00-.062-.554c0-.01-.003-.022-.004-.032l-.031-.243-.01-.071a69.538 69.538 0 00-.04-.279C15.239.593 5.55 2.09 5.55 2.09l.31 1.983L0 9.941l.256 2.266 2.22 1.296c.099-.239.226-.466.378-.677 1.432-1.566 4.21-2.796 5.006-3.05.16-.051.25-.077.25-.077-3.804 4.668-3.372 10.016-3.202 11.29-.177.033-.313.235-.313.481 0 .269.162.486.361.486h1.223c-2.034.808-3.65 2.346-4.492 4.278a7.672 7.672 0 00-.22.57l-.014.044a2.3 2.3 0 00-.034.11l-.018.056a5.41 5.41 0 00-.032.105l-.018.065a3.636 3.636 0 00-.047.172l-.025.097a4.542 4.542 0 00-.023.1l-.025.111H.743a.737.737 0 00-.508.19.638.638 0 000 .955.71.71 0 00.508.19H18.03a.737.737 0 00.508-.19.637.637 0 000-.955.71.71 0 00-.508-.19l-.006-.005zm20.25 0h-.488c0-.006-.002-.01-.003-.016l-.013-.06a4.312 4.312 0 00-.028-.116l-.013-.054a8.347 8.347 0 00-.04-.153l-.004-.015a6.586 6.586 0 00-.047-.164l-.016-.053-.034-.112-.02-.06a5.673 5.673 0 00-.037-.108l-.02-.057a5.865 5.865 0 00-.049-.133l-.01-.028a6.75 6.75 0 00-.086-.21l-.043-.102-.028-.063a5.213 5.213 0 00-.072-.157c-.018-.038-.034-.075-.054-.111l-.02-.043a5.105 5.105 0 00-.075-.143l-.035-.061-.048-.088-.037-.065-.048-.081a1.789 1.789 0 00-.038-.065c-.018-.03-.035-.059-.054-.088l-.05-.079-.07-.109a4.964 4.964 0 00-.045-.067l-.049-.072-.049-.07a.827.827 0 00-.047-.065c-.017-.02-.035-.048-.052-.071l-.048-.065-.1-.13-.046-.06-.06-.073-.046-.055-.063-.074-.044-.052-.067-.075-.039-.043a8.136 8.136 0 00-.251-.265l-.038-.037-.078-.077-.04-.037a6.014 6.014 0 00-.081-.078l-.029-.026a7.144 7.144 0 00-.297-.26l-.028-.022a6.313 6.313 0 00-.094-.077l-.032-.025-.098-.077-.017-.013a8.89 8.89 0 00-.342-.249l-.016-.011a7.289 7.289 0 00-.11-.074l-.024-.016-.113-.073-.007-.004a8.098 8.098 0 00-.385-.23l-.005-.003a11.756 11.756 0 00-.124-.067l-.018-.01a8.292 8.292 0 00-.678-.324l-.014-.006a8.407 8.407 0 00-.185-.076h1.223c.2 0 .361-.217.361-.486 0-.268-.162-.486-.36-.486h-.365a9.24 9.24 0 00.074-.185c.345-.204.951-.637 1.553-1.434l.004-.006c.046-.06.09-.121.135-.185l.009-.013a6.53 6.53 0 00.13-.194l.012-.018.061-.097s0-.003.003-.004l.063-.103.013-.022.053-.091.01-.017.06-.107.014-.025a5.895 5.895 0 00.12-.227l.013-.027.046-.092.016-.033.055-.116.011-.025.045-.097.017-.04a6.034 6.034 0 00.105-.25l.017-.044.042-.107.01-.027.047-.13.017-.046.036-.104.013-.04a9.88 9.88 0 00.06-.183l.034-.106.014-.047a7.18 7.18 0 00.053-.19c.01-.037.021-.074.03-.112l.015-.051.037-.151.01-.043.029-.122.012-.055.034-.16a8.491 8.491 0 00.034-.173l.011-.057c.01-.048.018-.097.026-.145l.006-.03.028-.173.009-.059.02-.142.007-.044.023-.18.007-.058.017-.146.005-.052.019-.19c0-.018.003-.035.004-.054.005-.05.01-.102.013-.154 0-.02.003-.038.004-.057l.014-.2c0-.015 0-.033.002-.046l.009-.168c0-.02 0-.041.002-.062l.008-.21v-.03l.004-.191v-.58c0-.065-.003-.133-.005-.2v-.037l-.008-.235-.003-.062a15.724 15.724 0 00-.01-.2c0-.017 0-.033-.003-.051l-.015-.245-.005-.057-.016-.208c0-.02-.003-.04-.004-.06l-.024-.255c0-.016-.003-.032-.004-.049l-.023-.22a21.643 21.643 0 00-.038-.333c0-.012-.004-.023-.005-.033l-.031-.243-.01-.071a45.666 45.666 0 00-.04-.279C35.488.593 25.8 2.09 25.8 2.09l.31 1.983-5.86 5.869.257 2.266 2.22 1.296a3.35 3.35 0 01.378-.677c1.432-1.566 4.21-2.796 5.006-3.05.16-.051.25-.077.25-.077-3.805 4.668-3.372 10.016-3.202 11.29-.177.033-.313.235-.313.481 0 .269.162.486.36.486h1.224c-2.034.808-3.65 2.346-4.492 4.278a7.71 7.71 0 00-.22.57l-.014.044a2.323 2.323 0 00-.034.11l-.018.056-.032.105-.018.065c-.01.032-.02.067-.028.1l-.02.072-.024.097a4.788 4.788 0 00-.023.1l-.025.111h-.488a.737.737 0 00-.508.19.64.64 0 000 .955.737.737 0 00.508.19H38.28a.737.737 0 00.508-.19.64.64 0 000-.955.737.737 0 00-.508-.19l-.006-.005zm20.25 0h-.487c0-.006-.003-.01-.004-.016l-.013-.06a4.313 4.313 0 00-.04-.17 8.347 8.347 0 00-.04-.153l-.004-.015a6.588 6.588 0 00-.047-.164l-.017-.053c-.01-.037-.023-.075-.034-.112l-.02-.06a5.042 5.042 0 00-.037-.108l-.02-.057a7.013 7.013 0 00-.049-.133l-.01-.028a6.75 6.75 0 00-.062-.155l-.023-.055-.044-.102-.027-.063a6.95 6.95 0 00-.073-.157 1.892 1.892 0 00-.053-.111c-.008-.014-.014-.028-.021-.043a5.384 5.384 0 00-.075-.143l-.034-.061-.048-.088-.038-.065a8.596 8.596 0 00-.086-.146c-.018-.03-.034-.059-.054-.088l-.049-.079-.07-.109a4.971 4.971 0 00-.046-.067l-.048-.072c-.017-.023-.035-.047-.05-.07a.882.882 0 00-.047-.065c-.016-.02-.034-.048-.052-.071l-.048-.065-.099-.13-.047-.06-.06-.073-.045-.055-.064-.074-.044-.052-.066-.075-.04-.043a8.133 8.133 0 00-.25-.265l-.038-.037-.08-.077-.038-.037a6.656 6.656 0 00-.082-.078l-.029-.026a7.141 7.141 0 00-.297-.26l-.028-.022a6.868 6.868 0 00-.094-.077l-.031-.025-.099-.077-.017-.013a8.736 8.736 0 00-.341-.249l-.016-.011a7.832 7.832 0 00-.11-.074l-.025-.016a2.715 2.715 0 00-.113-.073l-.007-.004a8.051 8.051 0 00-.384-.23l-.005-.003a10.829 10.829 0 00-.124-.067l-.019-.01a8.29 8.29 0 00-.678-.324l-.014-.006a8.22 8.22 0 00-.185-.076h1.223c.2 0 .361-.217.361-.486 0-.268-.161-.486-.36-.486h-.365c.023-.054.048-.116.075-.185.344-.204.95-.637 1.552-1.434l.005-.006c.045-.06.09-.121.134-.185l.009-.013a5.03 5.03 0 00.13-.194l.012-.018.062-.097s0-.003.002-.004l.063-.103.013-.022a4.862 4.862 0 00.124-.215l.013-.025a5.133 5.133 0 00.12-.227l.014-.027.045-.092.017-.033.054-.116.012-.025.044-.097.017-.04a6.034 6.034 0 00.105-.25l.017-.044.042-.107.01-.027.048-.13.016-.046a6.69 6.69 0 00.109-.327l.034-.106a12.816 12.816 0 00.15-.55l.01-.044.028-.122.012-.055.035-.16a8.49 8.49 0 00.034-.173l.01-.057c.01-.048.018-.097.027-.145l.005-.03c.01-.058.02-.115.028-.173l.01-.059.02-.142.006-.044.024-.18.007-.058a6.91 6.91 0 00.022-.198l.018-.19c0-.018.003-.035.005-.054l.012-.154c0-.02.003-.038.005-.057l.013-.2c0-.015 0-.033.002-.046l.009-.168c0-.02 0-.041.003-.062l.007-.21v-.03l.004-.191v-.58c0-.065-.002-.133-.004-.2v-.037l-.009-.235-.002-.062a14.077 14.077 0 00-.01-.2c0-.017 0-.033-.003-.051l-.016-.245-.004-.057-.016-.208c0-.02-.003-.04-.005-.06l-.023-.255c0-.016-.004-.032-.005-.049l-.023-.22a19.85 19.85 0 00-.038-.333c0-.012-.003-.023-.005-.033l-.03-.243-.01-.071a69.538 69.538 0 00-.04-.279C55.738.593 46.049 2.09 46.049 2.09l.31 1.983L40.5 9.941l.256 2.266 2.22 1.296c.099-.239.226-.466.379-.677 1.432-1.566 4.21-2.796 5.006-3.05.159-.051.25-.077.25-.077-3.805 4.668-3.372 10.016-3.203 11.29-.176.033-.313.235-.313.481 0 .269.162.486.361.486h1.224c-2.035.808-3.65 2.346-4.493 4.278a2.324 2.324 0 00-.268.724l-.018.056-.032.105-.018.065a3.568 3.568 0 00-.047.172l-.024.097a4.218 4.218 0 00-.023.1l-.026.111h-.487a.738.738 0 00-.508.19.638.638 0 000 .955.71.71 0 00.508.19H58.53a.738.738 0 00.508-.19.637.637 0 000-.955.71.71 0 00-.508-.19l-.006-.005zm20.25 0h-.487c0-.006-.003-.01-.004-.016l-.013-.06a4.313 4.313 0 00-.04-.17 7.602 7.602 0 00-.04-.153l-.004-.015a7.045 7.045 0 00-.047-.164l-.017-.053-.034-.112-.02-.06a6.476 6.476 0 00-.037-.108l-.02-.057a6.39 6.39 0 00-.049-.133l-.01-.028a7.239 7.239 0 00-.062-.155l-.023-.055-.044-.102-.027-.063a6.95 6.95 0 00-.073-.157 1.422 1.422 0 00-.054-.111l-.02-.043a5.384 5.384 0 00-.075-.143l-.034-.061-.048-.088-.038-.065-.047-.081a1.947 1.947 0 00-.04-.065c-.017-.03-.033-.059-.053-.088l-.049-.079-.07-.109a6.114 6.114 0 00-.046-.067l-.048-.072c-.017-.023-.035-.047-.05-.07a.882.882 0 00-.047-.065c-.016-.02-.034-.048-.052-.071l-.048-.065-.1-.13-.046-.06-.06-.073-.045-.055-.064-.074-.044-.052-.067-.075-.039-.043a8.133 8.133 0 00-.251-.265l-.038-.037-.078-.077-.039-.037a6.656 6.656 0 00-.082-.078l-.029-.026a7.141 7.141 0 00-.297-.26l-.028-.022a6.877 6.877 0 00-.094-.077l-.031-.025-.099-.077-.017-.013a8.89 8.89 0 00-.341-.249l-.016-.011a7.28 7.28 0 00-.11-.074l-.025-.016a7.578 7.578 0 00-.113-.073l-.007-.004a7.999 7.999 0 00-.384-.23l-.005-.003a10.84 10.84 0 00-.124-.067l-.019-.01a8.29 8.29 0 00-.678-.324l-.014-.006a8.211 8.211 0 00-.185-.076h1.223c.2 0 .361-.217.361-.486 0-.268-.161-.486-.36-.486h-.365l.075-.185c.344-.204.95-.637 1.552-1.434l.005-.006c.045-.06.09-.121.134-.185l.009-.013a5.66 5.66 0 00.13-.194l.012-.018.062-.097s0-.003.002-.004l.063-.103.013-.022a4.367 4.367 0 00.124-.215l.013-.025a5.133 5.133 0 00.12-.227l.014-.027.045-.092.016-.033.055-.116.011-.025c.016-.032.03-.065.045-.097l.017-.04a6.034 6.034 0 00.105-.25l.017-.044.042-.107.01-.027.048-.13.016-.046c.013-.034.024-.07.036-.104.005-.013.01-.026.013-.04a11.45 11.45 0 00.06-.183l.034-.106.014-.047a7.913 7.913 0 00.084-.302l.014-.051.037-.151.01-.043.029-.122.012-.055c.012-.053.024-.106.034-.16a8.49 8.49 0 00.034-.173l.012-.057.026-.145.005-.03.028-.173.009-.059.02-.142.007-.044.024-.18.006-.058a7.641 7.641 0 00.023-.198l.018-.19c0-.018.003-.035.005-.054l.012-.154c0-.02.003-.038.005-.057a17.747 17.747 0 00.024-.414c0-.02 0-.041.003-.062l.007-.21v-.03l.004-.191v-.58c0-.065-.002-.133-.004-.2v-.037l-.009-.235-.002-.062a17.785 17.785 0 00-.01-.2c0-.017 0-.033-.003-.051l-.016-.245-.004-.057-.016-.208c0-.02-.003-.04-.005-.06l-.023-.255c0-.016-.004-.032-.005-.049a29.196 29.196 0 00-.061-.554c0-.01-.003-.022-.005-.032l-.03-.243-.01-.071a69.538 69.538 0 00-.04-.279C75.988.593 66.299 2.09 66.299 2.09l.31 1.983-5.859 5.869.256 2.266 2.22 1.296c.099-.239.226-.466.379-.677 1.432-1.566 4.21-2.796 5.005-3.05.16-.051.25-.077.25-.077-3.804 4.668-3.372 10.016-3.202 11.29-.176.033-.313.235-.313.481 0 .269.162.486.361.486h1.223c-2.034.808-3.649 2.346-4.492 4.278a7.635 7.635 0 00-.22.57l-.014.044a2.324 2.324 0 00-.034.11l-.018.056a5.27 5.27 0 00-.032.105l-.018.065a3.568 3.568 0 00-.047.172l-.025.097a4.218 4.218 0 00-.022.1l-.026.111h-.488a.738.738 0 00-.508.19.638.638 0 000 .955.71.71 0 00.508.19H78.78a.738.738 0 00.508-.19.637.637 0 000-.955.71.71 0 00-.508-.19l-.006-.005zM86.01 13V2.908h2.594V6.9h.721l3.086-3.993h2.826l-3.893 4.714L95.38 13h-3.028l-3.028-4.282h-.72V13h-2.596zm10.812.187c-.076 0-.187-.004-.331-.014-.135 0-.24-.01-.317-.029v-2.278c.028.01.1.015.216.015.192 0 .356-.024.49-.072a.733.733 0 00.36-.346c.097-.183.178-.447.246-.793.076-.346.13-.808.158-1.385.029-.586.043-1.321.043-2.205V2.908h7.642V13h-2.61V5.027h-2.609v1.34c0 1.202-.048 2.212-.145 3.029-.096.807-.24 1.46-.432 1.96-.183.5-.409.885-.678 1.154a2.14 2.14 0 01-.922.533 4.033 4.033 0 01-1.11.144zm12.55 0c-.105 0-.211-.004-.317-.014a.734.734 0 01-.259-.043v-2.15l.23.03c.077.009.169.014.274.014.279 0 .495-.02.649-.058a.736.736 0 00.361-.23c.086-.116.158-.27.216-.462l-4.051-7.367h2.638l2.682 5.118 2.105-5.118h2.537l-3.374 7.627a8.75 8.75 0 01-.663 1.254c-.211.336-.456.61-.735.822a2.539 2.539 0 01-.966.432c-.365.096-.808.144-1.327.144zM117.59 13V2.908h7.425v2.134h-4.83V6.54h1.658c1.403 0 2.437.288 3.1.865.673.567 1.009 1.331 1.009 2.292 0 1.038-.336 1.85-1.009 2.437-.663.577-1.697.865-3.1.865h-4.253zm2.595-2.134h1.37c.624 0 1.067-.1 1.326-.303.26-.211.389-.5.389-.865s-.129-.648-.389-.85c-.259-.212-.702-.317-1.326-.317h-1.37v2.335zM91.257 29v-4.023c-.25.164-.581.313-.995.447-.403.125-.884.188-1.441.188-1.048 0-1.841-.26-2.38-.779-.528-.528-.792-1.374-.792-2.537v-3.388h2.595v2.955c0 .567.12.976.36 1.226.24.24.577.36 1.01.36.394 0 .725-.043.994-.13.27-.096.486-.197.65-.302v-4.11h2.609V29h-2.61zm4.622 0V18.908h7.353v1.99h-4.758v1.974h4.325v1.875h-4.325v2.263h4.758V29h-7.353zm11.672 0v-7.959h-3.1v-2.133h8.794v2.133h-3.099V29h-2.595zm6.998 0V18.908h2.595v3.345h1.225c1.404 0 2.437.302 3.1.908.673.605 1.009 1.427 1.009 2.465 0 1.038-.336 1.86-1.009 2.466-.663.605-1.696.908-3.1.908h-3.82zm2.595-2.134h.937c.606 0 1.043-.115 1.312-.346.269-.23.404-.529.404-.894s-.135-.663-.404-.894c-.269-.23-.706-.346-1.312-.346h-.937v2.48zM123.199 29V18.908h2.595V29h-2.595zm4.613 0V18.908h4.109c.942 0 1.715.14 2.321.418.605.269 1.052.663 1.341 1.182.298.51.447 1.125.447 1.846 0 .71-.149 1.326-.447 1.845-.289.519-.736.918-1.341 1.197-.606.269-1.379.403-2.321.403h-1.514V29h-2.595zm2.595-5.334h1.225c.664 0 1.13-.111 1.399-.332.269-.221.404-.548.404-.98 0-.433-.135-.76-.404-.98-.269-.222-.735-.332-1.399-.332h-1.225v2.623zM137.47 29V18.908h7.353v1.99h-4.758v1.974h4.326v1.875h-4.326v2.263h4.758V29h-7.353zm8.359 0l3.287-5.262-3.143-4.83h2.869l1.976 3.056 2.004-3.056h2.811l-3.129 4.8L155.777 29h-2.898l-2.105-3.532L148.669 29h-2.84zm14.918 0V18.908h2.596V22.9h.72l3.086-3.993h2.826l-3.893 4.714L170.119 29h-3.028l-3.028-4.282h-.72V29h-2.596zm15.003.187a6.065 6.065 0 01-1.874-.288 4.22 4.22 0 01-1.572-.908c-.451-.413-.807-.947-1.067-1.6-.259-.664-.389-1.452-.389-2.365v-.288c0-.885.13-1.644.389-2.278.26-.635.616-1.154 1.067-1.558a4.323 4.323 0 011.572-.893 6.065 6.065 0 011.874-.289c.673 0 1.302.096 1.889.289.586.192 1.105.49 1.557.893.452.404.807.923 1.067 1.558.259.634.389 1.393.389 2.278v.288c0 .913-.13 1.701-.389 2.364-.26.654-.615 1.188-1.067 1.6a4.24 4.24 0 01-1.557.91 6.032 6.032 0 01-1.889.287zm-.014-2.162c.394 0 .759-.087 1.095-.26.337-.182.606-.485.808-.908.211-.433.317-1.043.317-1.831v-.288c0-.75-.106-1.332-.317-1.745-.202-.413-.471-.702-.808-.865a2.47 2.47 0 00-1.095-.245 2.41 2.41 0 00-1.067.245c-.337.163-.611.452-.822.865-.211.413-.317.995-.317 1.745v.288c0 .788.106 1.398.317 1.831.211.423.485.726.822.908a2.3 2.3 0 001.067.26zM182.303 29V18.908h2.595v3.835h3.749v-3.835h2.595V29h-2.595v-4.123h-3.749V29h-2.595zm10.954 0V18.908h7.353v1.99h-4.758v1.974h4.326v1.875h-4.326v2.263h4.758V29h-7.353zm9.011 0V18.908h2.595v6.055l3.965-6.055h2.379V29h-2.595v-6.055L204.647 29h-2.379zm4.47-10.655c-.673 0-1.226-.09-1.658-.273-.423-.193-.736-.471-.937-.837-.193-.365-.289-.822-.289-1.37h2.105c0 .404.058.678.173.822.125.135.327.202.606.202.278 0 .475-.067.591-.202.125-.144.187-.418.187-.821h2.105c0 .547-.101 1.004-.303 1.37-.192.364-.499.643-.922.835-.423.183-.976.274-1.658.274z"/></svg></svg>